<svg width="24" height="24" viewBox="0 0 24 24" fill="none" xmlns="http://www.w3.org/2000/svg">
<g clip-path="url(#clip0_893_283)">
<path d="M12 21.9999C6.477 21.9999 2 17.5229 2 11.9999C2 6.47688 6.477 1.99988 12 1.99988C17.523 1.99988 22 6.47688 22 11.9999C22 17.5229 17.523 21.9999 12 21.9999ZM12 19.9999C14.1217 19.9999 16.1566 19.157 17.6569 17.6567C19.1571 16.1564 20 14.1216 20 11.9999C20 9.87815 19.1571 7.84331 17.6569 6.34302C16.1566 4.84273 14.1217 3.99988 12 3.99988C9.87827 3.99988 7.84344 4.84273 6.34315 6.34302C4.84285 7.84331 4 9.87815 4 11.9999C4 14.1216 4.84285 16.1564 6.34315 17.6567C7.84344 19.157 9.87827 19.9999 12 19.9999ZM10.622 8.41488L15.501 11.6669C15.5559 11.7034 15.6009 11.7529 15.632 11.811C15.6631 11.8691 15.6794 11.934 15.6794 11.9999C15.6794 12.0658 15.6631 12.1307 15.632 12.1888C15.6009 12.2469 15.5559 12.2964 15.501 12.3329L10.621 15.5849C10.5608 15.6248 10.491 15.6476 10.4189 15.651C10.3468 15.6544 10.2751 15.6383 10.2114 15.6042C10.1477 15.5702 10.0945 15.5196 10.0573 15.4577C10.02 15.3958 10.0003 15.3251 10 15.2529V8.74688C10.0001 8.67453 10.0199 8.60357 10.0572 8.54156C10.0944 8.47955 10.1478 8.42881 10.2116 8.39474C10.2755 8.36067 10.3473 8.34455 10.4196 8.3481C10.4919 8.35164 10.5618 8.37472 10.622 8.41488Z" fill="#222222"/>
</g>
<defs>
<clipPath id="clip0_893_283">
<rect width="24" height="24" fill="white"/>
</clipPath>
</defs>
</svg>
