<svg width="30" height="30" viewBox="0 0 30 30" fill="none" xmlns="http://www.w3.org/2000/svg">
<g clip-path="url(#clip0_893_379)">
<path d="M5.72875 21.6513C4.44125 20.2838 3.75 18.7501 3.75 16.2638C3.75 11.8888 6.82125 7.96756 11.2875 6.02881L12.4038 7.75131C8.235 10.0063 7.42 12.9326 7.095 14.7776C7.76625 14.4301 8.645 14.3088 9.50625 14.3888C11.7613 14.5976 13.5388 16.4488 13.5388 18.7501C13.5388 19.9104 13.0778 21.0232 12.2573 21.8437C11.4369 22.6641 10.3241 23.1251 9.16375 23.1251C7.8225 23.1251 6.54 22.5126 5.72875 21.6513ZM18.2288 21.6513C16.9412 20.2838 16.25 18.7501 16.25 16.2638C16.25 11.8888 19.3213 7.96756 23.7875 6.02881L24.9038 7.75131C20.735 10.0063 19.92 12.9326 19.595 14.7776C20.2662 14.4301 21.145 14.3088 22.0062 14.3888C24.2612 14.5976 26.0387 16.4488 26.0387 18.7501C26.0387 19.9104 25.5778 21.0232 24.7573 21.8437C23.9369 22.6641 22.8241 23.1251 21.6637 23.1251C20.3225 23.1251 19.04 22.5126 18.2288 21.6513Z" fill="#381DDB"/>
</g>
<defs>
<clipPath id="clip0_893_379">
<rect width="30" height="30" fill="white"/>
</clipPath>
</defs>
</svg>
