<svg width="361" height="361" viewBox="0 0 361 361" fill="none" xmlns="http://www.w3.org/2000/svg">
<path d="M180.5 0.916504C229.293 0.916504 235.381 1.09609 254.524 1.994C273.65 2.89192 286.67 5.89096 298.127 10.3446C309.98 14.906 319.965 21.0837 329.949 31.0506C339.081 40.0279 346.147 50.8872 350.655 62.8728C355.091 74.3122 358.108 87.35 359.006 106.476C359.85 125.619 360.083 131.707 360.083 180.5C360.083 229.293 359.904 235.381 359.006 254.524C358.108 273.65 355.091 286.669 350.655 298.127C346.16 310.119 339.092 320.981 329.949 329.949C320.969 339.078 310.111 346.143 298.127 350.655C286.688 355.091 273.65 358.108 254.524 359.006C235.381 359.85 229.293 360.083 180.5 360.083C131.707 360.083 125.619 359.904 106.476 359.006C87.3502 358.108 74.3304 355.091 62.873 350.655C50.8827 346.156 40.0215 339.089 31.0508 329.949C21.9173 320.973 14.8512 310.114 10.3449 298.127C5.89121 286.687 2.89216 273.65 1.99425 254.524C1.15021 235.381 0.916748 229.293 0.916748 180.5C0.916748 131.707 1.09633 125.619 1.99425 106.476C2.89216 87.332 5.89121 74.3302 10.3449 62.8728C14.8387 50.8798 21.9065 40.0176 31.0508 31.0506C40.0241 21.9139 50.8845 14.8473 62.873 10.3446C74.3304 5.89096 87.3322 2.89192 106.476 1.994C125.619 1.14996 131.707 0.916504 180.5 0.916504ZM180.5 90.7082C156.686 90.7082 133.847 100.168 117.008 117.008C100.169 133.847 90.7084 156.686 90.7084 180.5C90.7084 204.314 100.169 227.153 117.008 243.992C133.847 260.831 156.686 270.292 180.5 270.292C204.314 270.292 227.153 260.831 243.992 243.992C260.832 227.153 270.292 204.314 270.292 180.5C270.292 156.686 260.832 133.847 243.992 117.008C227.153 100.168 204.314 90.7082 180.5 90.7082ZM297.229 86.2186C297.229 80.265 294.864 74.5553 290.654 70.3455C286.445 66.1357 280.735 63.7707 274.781 63.7707C268.828 63.7707 263.118 66.1357 258.908 70.3455C254.698 74.5553 252.333 80.265 252.333 86.2186C252.333 92.1721 254.698 97.8819 258.908 102.092C263.118 106.301 268.828 108.667 274.781 108.667C280.735 108.667 286.445 106.301 290.654 102.092C294.864 97.8819 297.229 92.1721 297.229 86.2186ZM180.5 126.625C194.789 126.625 208.492 132.301 218.595 142.404C228.699 152.508 234.375 166.211 234.375 180.5C234.375 194.788 228.699 208.492 218.595 218.595C208.492 228.699 194.789 234.375 180.5 234.375C166.212 234.375 152.508 228.699 142.405 218.595C132.301 208.492 126.625 194.788 126.625 180.5C126.625 166.211 132.301 152.508 142.405 142.404C152.508 132.301 166.212 126.625 180.5 126.625Z" fill="#FC5252"/>
</svg>
