<svg width="1838" height="860" viewBox="0 0 1781 860" fill="none" xmlns="http://www.w3.org/2000/svg">
<path d="M1580 4L1838.98 73.5046L1812.32 172.995L1580 4Z" fill="#FFA3A3"/>
<circle cx="1566.07" cy="2.44949" r="2" transform="rotate(15 1566.07 2.44949)" fill="#222222"/>
<circle cx="1560.38" cy="23.6999" r="2" transform="rotate(15 1560.38 23.6999)" fill="#222222"/>
<circle cx="1554.68" cy="44.9502" r="2" transform="rotate(15 1554.68 44.9502)" fill="#222222"/>
<circle cx="1548.99" cy="66.2006" r="2" transform="rotate(15 1548.99 66.2006)" fill="#222222"/>
<circle cx="1543.3" cy="87.451" r="2" transform="rotate(15 1543.3 87.451)" fill="#222222"/>
<circle cx="1572.88" cy="15.6629" r="2" transform="rotate(15 1572.88 15.6629)" fill="#222222"/>
<circle cx="1567.19" cy="36.9132" r="2" transform="rotate(15 1567.19 36.9132)" fill="#222222"/>
<circle cx="1561.5" cy="58.1636" r="2" transform="rotate(15 1561.5 58.1636)" fill="#222222"/>
<circle cx="1555.8" cy="79.414" r="2" transform="rotate(15 1555.8 79.414)" fill="#222222"/>
<circle cx="1550.11" cy="100.664" r="2" transform="rotate(15 1550.11 100.664)" fill="#222222"/>
<circle cx="1592.2" cy="20.8393" r="2" transform="rotate(15 1592.2 20.8393)" fill="#222222"/>
<circle cx="1586.51" cy="42.0896" r="2" transform="rotate(15 1586.51 42.0896)" fill="#222222"/>
<circle cx="1580.82" cy="63.34" r="2" transform="rotate(15 1580.82 63.34)" fill="#222222"/>
<circle cx="1575.12" cy="84.5904" r="2" transform="rotate(15 1575.12 84.5904)" fill="#222222"/>
<circle cx="1569.43" cy="105.841" r="2" transform="rotate(15 1569.43 105.841)" fill="#222222"/>
<circle cx="1611.52" cy="26.0156" r="2" transform="rotate(15 1611.52 26.0156)" fill="#222222"/>
<circle cx="1605.83" cy="47.266" r="2" transform="rotate(15 1605.83 47.266)" fill="#222222"/>
<circle cx="1600.13" cy="68.5164" r="2" transform="rotate(15 1600.13 68.5164)" fill="#222222"/>
<circle cx="1594.44" cy="89.7668" r="2" transform="rotate(15 1594.44 89.7668)" fill="#222222"/>
<circle cx="1588.75" cy="111.017" r="2" transform="rotate(15 1588.75 111.017)" fill="#222222"/>
<circle cx="1630.84" cy="31.192" r="2" transform="rotate(15 1630.84 31.192)" fill="#222222"/>
<circle cx="1625.15" cy="52.4424" r="2" transform="rotate(15 1625.15 52.4424)" fill="#222222"/>
<circle cx="1619.45" cy="73.6927" r="2" transform="rotate(15 1619.45 73.6927)" fill="#222222"/>
<circle cx="1613.76" cy="94.9431" r="2" transform="rotate(15 1613.76 94.9431)" fill="#222222"/>
<circle cx="1608.06" cy="116.194" r="2" transform="rotate(15 1608.06 116.194)" fill="#222222"/>
<circle cx="1650.16" cy="36.3684" r="2" transform="rotate(15 1650.16 36.3684)" fill="#222222"/>
<circle cx="1644.46" cy="57.6187" r="2" transform="rotate(15 1644.46 57.6187)" fill="#222222"/>
<circle cx="1638.77" cy="78.8691" r="2" transform="rotate(15 1638.77 78.8691)" fill="#222222"/>
<circle cx="1633.08" cy="100.119" r="2" transform="rotate(15 1633.08 100.119)" fill="#222222"/>
<circle cx="1627.38" cy="121.37" r="2" transform="rotate(15 1627.38 121.37)" fill="#222222"/>
<circle cx="1669.48" cy="41.5448" r="2" transform="rotate(15 1669.48 41.5448)" fill="#222222"/>
<circle cx="1663.78" cy="62.7951" r="2" transform="rotate(15 1663.78 62.7951)" fill="#222222"/>
<circle cx="1658.09" cy="84.0455" r="2" transform="rotate(15 1658.09 84.0455)" fill="#222222"/>
<circle cx="1652.4" cy="105.296" r="2" transform="rotate(15 1652.4 105.296)" fill="#222222"/>
<circle cx="1646.7" cy="126.546" r="2" transform="rotate(15 1646.7 126.546)" fill="#222222"/>
<circle cx="1688.8" cy="46.7212" r="2" transform="rotate(15 1688.8 46.7212)" fill="#222222"/>
<circle cx="1683.1" cy="67.9715" r="2" transform="rotate(15 1683.1 67.9715)" fill="#222222"/>
<circle cx="1677.41" cy="89.2219" r="2" transform="rotate(15 1677.41 89.2219)" fill="#222222"/>
<circle cx="1671.71" cy="110.472" r="2" transform="rotate(15 1671.71 110.472)" fill="#222222"/>
<circle cx="1666.02" cy="131.723" r="2" transform="rotate(15 1666.02 131.723)" fill="#222222"/>
<circle cx="1708.11" cy="51.8975" r="2" transform="rotate(15 1708.11 51.8975)" fill="#222222"/>
<circle cx="1702.42" cy="73.1479" r="2" transform="rotate(15 1702.42 73.1479)" fill="#222222"/>
<circle cx="1696.73" cy="94.3983" r="2" transform="rotate(15 1696.73 94.3983)" fill="#222222"/>
<circle cx="1691.03" cy="115.649" r="2" transform="rotate(15 1691.03 115.649)" fill="#222222"/>
<circle cx="1685.34" cy="136.899" r="2" transform="rotate(15 1685.34 136.899)" fill="#222222"/>
<circle cx="1727.43" cy="57.0739" r="2" transform="rotate(15 1727.43 57.0739)" fill="#222222"/>
<circle cx="1721.74" cy="78.3243" r="2" transform="rotate(15 1721.74 78.3243)" fill="#222222"/>
<circle cx="1716.04" cy="99.5747" r="2" transform="rotate(15 1716.04 99.5747)" fill="#222222"/>
<circle cx="1710.35" cy="120.825" r="2" transform="rotate(15 1710.35 120.825)" fill="#222222"/>
<circle cx="1704.66" cy="142.075" r="2" transform="rotate(15 1704.66 142.075)" fill="#222222"/>
<circle cx="1746.75" cy="62.2503" r="2" transform="rotate(15 1746.75 62.2503)" fill="#222222"/>
<circle cx="1741.06" cy="83.5007" r="2" transform="rotate(15 1741.06 83.5007)" fill="#222222"/>
<circle cx="1735.36" cy="104.751" r="2" transform="rotate(15 1735.36 104.751)" fill="#222222"/>
<circle cx="1729.67" cy="126.001" r="2" transform="rotate(15 1729.67 126.001)" fill="#222222"/>
<circle cx="1723.98" cy="147.252" r="2" transform="rotate(15 1723.98 147.252)" fill="#222222"/>
<circle cx="1766.07" cy="67.4267" r="2" transform="rotate(15 1766.07 67.4267)" fill="#222222"/>
<circle cx="1760.38" cy="88.677" r="2" transform="rotate(15 1760.38 88.677)" fill="#222222"/>
<circle cx="1754.68" cy="109.927" r="2" transform="rotate(15 1754.68 109.927)" fill="#222222"/>
<circle cx="1748.99" cy="131.178" r="2" transform="rotate(15 1748.99 131.178)" fill="#222222"/>
<circle cx="1743.29" cy="152.428" r="2" transform="rotate(15 1743.29 152.428)" fill="#222222"/>
<circle cx="1779.69" cy="93.8534" r="2" transform="rotate(15 1779.69 93.8534)" fill="#222222"/>
<circle cx="1774" cy="115.104" r="2" transform="rotate(15 1774 115.104)" fill="#222222"/>
<circle cx="1768.31" cy="136.354" r="2" transform="rotate(15 1768.31 136.354)" fill="#222222"/>
<circle cx="1762.61" cy="157.605" r="2" transform="rotate(15 1762.61 157.605)" fill="#222222"/>
<circle cx="1781.93" cy="162.781" r="2" transform="rotate(15 1781.93 162.781)" fill="#222222"/>
<circle cx="1585.39" cy="7.62588" r="2" transform="rotate(15 1585.39 7.62588)" fill="#222222"/>
<circle cx="1579.7" cy="28.8762" r="2" transform="rotate(15 1579.7 28.8762)" fill="#222222"/>
<circle cx="1574" cy="50.1266" r="2" transform="rotate(15 1574 50.1266)" fill="#222222"/>
<circle cx="1568.31" cy="71.377" r="2" transform="rotate(15 1568.31 71.377)" fill="#222222"/>
<circle cx="1562.61" cy="92.6273" r="2" transform="rotate(15 1562.61 92.6273)" fill="#222222"/>
<circle cx="1604.71" cy="12.8022" r="2" transform="rotate(15 1604.71 12.8022)" fill="#222222"/>
<circle cx="1599.02" cy="34.0526" r="2" transform="rotate(15 1599.02 34.0526)" fill="#222222"/>
<circle cx="1593.32" cy="55.303" r="2" transform="rotate(15 1593.32 55.303)" fill="#222222"/>
<circle cx="1587.63" cy="76.5533" r="2" transform="rotate(15 1587.63 76.5533)" fill="#222222"/>
<circle cx="1581.93" cy="97.8037" r="2" transform="rotate(15 1581.93 97.8037)" fill="#222222"/>
<circle cx="1624.03" cy="17.9786" r="2" transform="rotate(15 1624.03 17.9786)" fill="#222222"/>
<circle cx="1618.33" cy="39.229" r="2" transform="rotate(15 1618.33 39.229)" fill="#222222"/>
<circle cx="1612.64" cy="60.4794" r="2" transform="rotate(15 1612.64 60.4794)" fill="#222222"/>
<circle cx="1606.95" cy="81.7297" r="2" transform="rotate(15 1606.95 81.7297)" fill="#222222"/>
<circle cx="1601.25" cy="102.98" r="2" transform="rotate(15 1601.25 102.98)" fill="#222222"/>
<circle cx="1643.35" cy="23.155" r="2" transform="rotate(15 1643.35 23.155)" fill="#222222"/>
<circle cx="1637.65" cy="44.4054" r="2" transform="rotate(15 1637.65 44.4054)" fill="#222222"/>
<circle cx="1631.96" cy="65.6558" r="2" transform="rotate(15 1631.96 65.6558)" fill="#222222"/>
<circle cx="1626.26" cy="86.9061" r="2" transform="rotate(15 1626.26 86.9061)" fill="#222222"/>
<circle cx="1620.57" cy="108.156" r="2" transform="rotate(15 1620.57 108.156)" fill="#222222"/>
<circle cx="1662.67" cy="28.3314" r="2" transform="rotate(15 1662.67 28.3314)" fill="#222222"/>
<circle cx="1656.97" cy="49.5818" r="2" transform="rotate(15 1656.97 49.5818)" fill="#222222"/>
<circle cx="1651.28" cy="70.8321" r="2" transform="rotate(15 1651.28 70.8321)" fill="#222222"/>
<circle cx="1645.58" cy="92.0825" r="2" transform="rotate(15 1645.58 92.0825)" fill="#222222"/>
<circle cx="1639.89" cy="113.333" r="2" transform="rotate(15 1639.89 113.333)" fill="#222222"/>
<circle cx="1681.98" cy="33.5078" r="2" transform="rotate(15 1681.98 33.5078)" fill="#222222"/>
<circle cx="1676.29" cy="54.7581" r="2" transform="rotate(15 1676.29 54.7581)" fill="#222222"/>
<circle cx="1670.6" cy="76.0085" r="2" transform="rotate(15 1670.6 76.0085)" fill="#222222"/>
<circle cx="1664.9" cy="97.2589" r="2" transform="rotate(15 1664.9 97.2589)" fill="#222222"/>
<circle cx="1659.21" cy="118.509" r="2" transform="rotate(15 1659.21 118.509)" fill="#222222"/>
<circle cx="1701.3" cy="38.6842" r="2" transform="rotate(15 1701.3 38.6842)" fill="#222222"/>
<circle cx="1695.61" cy="59.9345" r="2" transform="rotate(15 1695.61 59.9345)" fill="#222222"/>
<circle cx="1689.91" cy="81.1849" r="2" transform="rotate(15 1689.91 81.1849)" fill="#222222"/>
<circle cx="1684.22" cy="102.435" r="2" transform="rotate(15 1684.22 102.435)" fill="#222222"/>
<circle cx="1678.53" cy="123.686" r="2" transform="rotate(15 1678.53 123.686)" fill="#222222"/>
<circle cx="1720.62" cy="43.8605" r="2" transform="rotate(15 1720.62 43.8605)" fill="#222222"/>
<circle cx="1714.93" cy="65.1109" r="2" transform="rotate(15 1714.93 65.1109)" fill="#222222"/>
<circle cx="1709.23" cy="86.3613" r="2" transform="rotate(15 1709.23 86.3613)" fill="#222222"/>
<circle cx="1703.54" cy="107.612" r="2" transform="rotate(15 1703.54 107.612)" fill="#222222"/>
<circle cx="1697.84" cy="128.862" r="2" transform="rotate(15 1697.84 128.862)" fill="#222222"/>
<circle cx="1739.94" cy="49.0369" r="2" transform="rotate(15 1739.94 49.0369)" fill="#222222"/>
<circle cx="1734.25" cy="70.2873" r="2" transform="rotate(15 1734.25 70.2873)" fill="#222222"/>
<circle cx="1728.55" cy="91.5376" r="2" transform="rotate(15 1728.55 91.5376)" fill="#222222"/>
<circle cx="1722.86" cy="112.788" r="2" transform="rotate(15 1722.86 112.788)" fill="#222222"/>
<circle cx="1717.16" cy="134.038" r="2" transform="rotate(15 1717.16 134.038)" fill="#222222"/>
<circle cx="1759.26" cy="54.2133" r="2" transform="rotate(15 1759.26 54.2133)" fill="#222222"/>
<circle cx="1753.56" cy="75.4637" r="2" transform="rotate(15 1753.56 75.4637)" fill="#222222"/>
<circle cx="1747.87" cy="96.714" r="2" transform="rotate(15 1747.87 96.714)" fill="#222222"/>
<circle cx="1742.18" cy="117.964" r="2" transform="rotate(15 1742.18 117.964)" fill="#222222"/>
<circle cx="1736.48" cy="139.215" r="2" transform="rotate(15 1736.48 139.215)" fill="#222222"/>
<circle cx="1778.58" cy="59.3897" r="2" transform="rotate(15 1778.58 59.3897)" fill="#222222"/>
<circle cx="1772.88" cy="80.64" r="2" transform="rotate(15 1772.88 80.64)" fill="#222222"/>
<circle cx="1767.19" cy="101.89" r="2" transform="rotate(15 1767.19 101.89)" fill="#222222"/>
<circle cx="1761.49" cy="123.141" r="2" transform="rotate(15 1761.49 123.141)" fill="#222222"/>
<circle cx="1755.8" cy="144.391" r="2" transform="rotate(15 1755.8 144.391)" fill="#222222"/>
<circle cx="1780.81" cy="128.317" r="2" transform="rotate(15 1780.81 128.317)" fill="#222222"/>
<circle cx="1775.12" cy="149.568" r="2" transform="rotate(15 1775.12 149.568)" fill="#222222"/>
<path d="M1550 760.174L1664 760L1606.85 860L1550 760.174Z" fill="#84C4FF"/>
<path d="M1576.86 834.928L1526.88 747.163L1627.1 747.011L1576.86 834.928Z" stroke="#222222" stroke-width="8"/>
<rect x="91.4038" y="652.555" width="16" height="120" transform="rotate(49.0974 91.4038 652.555)" fill="#FFA3A3"/>
<rect x="96.5916" y="659.307" width="15" height="119" transform="rotate(49.0974 96.5916 659.307)" stroke="#222222"/>
</svg>
